<svg width="24" height="24" viewBox="0 0 24 24" fill="none" xmlns="http://www.w3.org/2000/svg">
<path d="M6.41008 9H17.5901C17.7879 9.00083 17.9809 9.06028 18.1449 9.17085C18.3089 9.28141 18.4364 9.43811 18.5114 9.62115C18.5863 9.80418 18.6052 10.0053 18.5659 10.1991C18.5265 10.3929 18.4305 10.5707 18.2901 10.71L12.7101 16.29C12.6171 16.3837 12.5065 16.4581 12.3847 16.5089C12.2628 16.5596 12.1321 16.5858 12.0001 16.5858C11.8681 16.5858 11.7374 16.5596 11.6155 16.5089C11.4936 16.4581 11.383 16.3837 11.2901 16.29L5.71008 10.71C5.56966 10.5707 5.47369 10.3929 5.43431 10.1991C5.39492 10.0053 5.41389 9.80418 5.48882 9.62115C5.56374 9.43811 5.69126 9.28141 5.85524 9.17085C6.01923 9.06028 6.21231 9.00083 6.41008 9Z" fill="#0D1015"/>
</svg>
