<svg width="23" height="25" viewBox="0 0 23 25" fill="none" xmlns="http://www.w3.org/2000/svg">
<path d="M22.4947 14.2311L20.5155 7.11026C19.9354 5.02415 18.6746 3.19181 16.9336 1.9045C15.1926 0.617187 13.0712 -0.0512155 10.9067 0.00553459C8.74213 0.0622847 6.65868 0.840931 4.98749 2.2177C3.31629 3.59448 2.15326 5.49036 1.68325 7.60401L0.150962 14.4946C-0.0182931 15.256 -0.0143799 16.0457 0.162413 16.8054C0.339205 17.5651 0.684362 18.2753 1.1724 18.8838C1.66044 19.4922 2.2789 19.9832 2.98212 20.3206C3.68534 20.658 4.45536 20.8332 5.23534 20.8332H6.39575C6.63483 22.0106 7.2736 23.0691 8.20382 23.8294C9.13404 24.5897 10.2985 25.0051 11.4999 25.0051C12.7013 25.0051 13.8658 24.5897 14.796 23.8294C15.7262 23.0691 16.365 22.0106 16.6041 20.8332H17.477C18.2799 20.8332 19.072 20.6476 19.7913 20.2909C20.5107 19.9342 21.1378 19.416 21.6237 18.7768C22.1096 18.1376 22.4411 17.3947 22.5924 16.6061C22.7437 15.8176 22.7106 15.0047 22.4958 14.2311H22.4947ZM11.4999 22.9165C10.8559 22.9138 10.2284 22.7123 9.70336 22.3393C9.17829 21.9664 8.78126 21.4404 8.56659 20.8332H14.4333C14.2186 21.4404 13.8216 21.9664 13.2965 22.3393C12.7714 22.7123 12.1439 22.9138 11.4999 22.9165ZM19.9645 17.5155C19.6742 17.9005 19.2982 18.2126 18.8662 18.4269C18.4342 18.6412 17.9582 18.7517 17.476 18.7498H5.23534C4.7674 18.7498 4.30546 18.6446 3.88361 18.4421C3.46175 18.2396 3.09076 17.945 2.798 17.5799C2.50525 17.2149 2.29821 16.7888 2.19217 16.333C2.08613 15.8773 2.0838 15.4035 2.18534 14.9467L3.71659 8.05505C4.0857 6.39485 4.9992 4.90568 6.31185 3.82427C7.62451 2.74286 9.26099 2.13127 10.9611 2.08673C12.6613 2.04219 14.3276 2.56725 15.695 3.57845C17.0625 4.58965 18.0527 6.02895 18.5083 7.66755L20.4874 14.7884C20.6182 15.2523 20.639 15.7403 20.5483 16.2137C20.4575 16.6871 20.2576 17.1328 19.9645 17.5155Z" fill="#95A5A6"/>
</svg>
