<svg width="32" height="37" viewBox="0 0 32 37" fill="none" xmlns="http://www.w3.org/2000/svg">
<path d="M0.69587 34.1531V3.02064C0.691133 2.46704 0.929067 1.92503 1.37933 1.4637C1.8296 1.00238 2.4718 0.642636 3.22405 0.430348C3.97631 0.21806 4.80454 0.162843 5.60315 0.271736C6.40176 0.380628 7.13457 0.648698 7.70814 1.04177L30.5903 16.6219C31.3541 17.1441 31.7828 17.8505 31.7828 18.5869C31.7828 19.3232 31.3541 20.0296 30.5903 20.5518L7.70814 36.1319C7.13457 36.525 6.40176 36.7931 5.60315 36.902C4.80454 37.0109 3.97631 36.9556 3.22405 36.7433C2.4718 36.5311 1.8296 36.1713 1.37933 35.71C0.929067 35.2487 0.691133 34.7067 0.69587 34.1531Z" fill="#19C37D"/>
</svg>
