<svg width="119" height="67" viewBox="0 0 119 67" fill="none" xmlns="http://www.w3.org/2000/svg">
<circle cx="110.476" cy="59.0917" r="7.70763" transform="rotate(-180 110.476 59.0917)" fill="#1C77C3"/>
<circle cx="84.7841" cy="59.0917" r="7.70763" transform="rotate(-180 84.7841 59.0917)" fill="#1C77C3"/>
<circle cx="59.0918" cy="59.0917" r="7.70763" transform="rotate(-180 59.0918 59.0917)" fill="#1C77C3"/>
<circle cx="33.3998" cy="59.0917" r="7.70763" transform="rotate(-180 33.3998 59.0917)" fill="#1C77C3"/>
<circle cx="7.70753" cy="59.0917" r="7.70763" transform="rotate(-180 7.70753 59.0917)" fill="#1C77C3"/>
<circle cx="110.476" cy="33.3995" r="7.70763" transform="rotate(-180 110.476 33.3995)" fill="#1C77C3"/>
<circle cx="84.7841" cy="33.3995" r="7.70763" transform="rotate(-180 84.7841 33.3995)" fill="#1C77C3"/>
<circle cx="59.0918" cy="33.3995" r="7.70763" transform="rotate(-180 59.0918 33.3995)" fill="#1C77C3"/>
<circle cx="33.3998" cy="33.3995" r="7.70763" transform="rotate(-180 33.3998 33.3995)" fill="#1C77C3"/>
<circle cx="7.70753" cy="33.3995" r="7.70763" transform="rotate(-180 7.70753 33.3995)" fill="#1C77C3"/>
<circle cx="59.0918" cy="7.70741" r="7.70763" transform="rotate(-180 59.0918 7.70741)" fill="#1C77C3"/>
<circle cx="33.3998" cy="7.70741" r="7.70763" transform="rotate(-180 33.3998 7.70741)" fill="#1C77C3"/>
<circle cx="7.70753" cy="7.70741" r="7.70763" transform="rotate(-180 7.70753 7.70741)" fill="#1C77C3"/>
</svg>
