<svg width="563" height="562" viewBox="0 0 563 562" fill="none" xmlns="http://www.w3.org/2000/svg">
<path d="M526.485 37.4018H176.037C167.653 37.4018 160.857 44.1982 160.857 52.582V236.651C160.857 245.034 167.653 251.831 176.037 251.831H526.485C534.869 251.831 541.665 245.034 541.665 236.651V52.582C541.665 44.1982 534.869 37.4018 526.485 37.4018Z" fill="#F5F5F5"/>
<path d="M526.485 253.233H176.065C171.671 253.236 167.455 251.497 164.341 248.396C161.227 245.296 159.47 241.087 159.455 236.693V52.582C159.459 48.1853 161.207 43.9698 164.316 40.8609C167.425 37.752 171.64 36.0038 176.037 36.0001H526.457C528.641 35.9927 530.804 36.416 532.824 37.2457C534.844 38.0753 536.681 39.2951 538.228 40.8353C539.776 42.3754 541.006 44.2056 541.845 46.2213C542.685 48.2369 543.119 50.3984 543.123 52.582V236.693C543.105 241.091 541.343 245.302 538.224 248.402C535.105 251.503 530.883 253.24 526.485 253.233ZM176.065 38.7754C172.412 38.7791 168.91 40.232 166.326 42.8152C163.743 45.3983 162.29 48.9008 162.287 52.5539V236.693C162.29 240.346 163.743 243.848 166.326 246.431C168.91 249.015 172.412 250.468 176.065 250.471H526.485C528.299 250.477 530.096 250.125 531.773 249.435C533.45 248.745 534.975 247.731 536.26 246.451C537.545 245.172 538.565 243.651 539.262 241.976C539.958 240.302 540.318 238.506 540.32 236.693V52.582C540.316 48.9288 538.863 45.4264 536.28 42.8432C533.697 40.26 530.194 38.8072 526.541 38.8035L176.065 38.7754Z" fill="#E0E0E0"/>
<path d="M159.918 168.963H220.19V200.249H275.108V236.945H461.531V178.775H500.007V103H540.74V230.553C540.74 236.107 538.534 241.434 534.607 245.361C530.68 249.288 525.353 251.494 519.799 251.494H182.723C179.728 251.496 176.761 250.908 173.994 249.762C171.226 248.617 168.711 246.937 166.593 244.819C164.475 242.701 162.795 240.186 161.65 237.418C160.505 234.651 159.916 231.684 159.918 228.689V168.963Z" fill="#E0E0E0"/>
<path d="M181.49 281.995C181.49 284.154 180.999 320.695 180.186 382.622V382.734H180.088H0.140166H0V257.059H0.140166H100.22H100.304V257.157C100.634 260.624 101.856 263.946 103.851 266.801C105.726 269.533 108.076 271.907 110.789 273.809C115.843 277.144 121.599 279.265 127.609 280.005C132.833 280.694 138.095 281.055 143.364 281.084L156.666 281.406L181.434 282.023L156.68 281.546L143.406 281.252C138.133 281.233 132.866 280.882 127.637 280.201C121.587 279.473 115.79 277.348 110.705 273.991C107.966 272.096 105.592 269.722 103.696 266.983C101.671 264.078 100.435 260.697 100.108 257.171L100.22 257.269H0.140166L0.280337 257.129V382.566L0.140166 382.411L180.088 382.467L179.976 382.58C180.915 320.695 181.49 284.154 181.49 281.995Z" fill="#EBEBEB"/>
<path d="M295.46 548.412C295.46 548.412 295.46 547.74 295.46 546.464C295.46 545.189 295.46 543.296 295.46 540.857C295.46 535.909 295.46 528.649 295.46 519.328C295.46 500.713 295.376 473.871 295.306 440.932L295.586 441.212L112.106 441.296L112.471 440.932C112.471 478.987 112.471 515.347 112.471 548.44L112.134 548.104L244.131 548.258L281.976 548.356H292.082H294.689H295.586H294.731H292.166H282.13L244.285 548.44L112.064 548.609H111.714V548.272C111.714 515.179 111.714 478.819 111.714 440.763V440.399H112.092L295.572 440.483H295.867V440.763C295.867 473.773 295.741 500.671 295.713 519.342C295.713 528.635 295.713 535.867 295.643 540.801C295.643 543.24 295.643 545.104 295.643 546.408C295.643 547.712 295.46 548.412 295.46 548.412Z" fill="#E0E0E0"/>
<path d="M287.302 447.407C287.302 447.519 286.447 447.547 285.901 448.571C285.732 448.845 285.627 449.153 285.593 449.474C285.559 449.794 285.597 450.117 285.705 450.421C285.886 450.747 286.155 451.017 286.481 451.199C286.807 451.381 287.178 451.468 287.551 451.45C287.924 451.433 288.285 451.311 288.593 451.1C288.9 450.888 289.143 450.595 289.293 450.253C289.367 449.94 289.371 449.614 289.306 449.3C289.24 448.985 289.107 448.688 288.914 448.43C288.514 447.937 287.971 447.579 287.358 447.407C287.358 447.407 287.555 447.281 287.933 447.323C288.48 447.408 288.977 447.686 289.335 448.108C289.616 448.418 289.819 448.792 289.926 449.197C290.033 449.601 290.042 450.026 289.952 450.435C289.78 450.93 289.464 451.363 289.044 451.677C288.624 451.99 288.119 452.171 287.596 452.195C287.072 452.219 286.553 452.086 286.106 451.812C285.659 451.538 285.304 451.137 285.088 450.659C284.96 450.262 284.929 449.839 284.997 449.427C285.065 449.015 285.231 448.625 285.48 448.29C285.793 447.841 286.255 447.518 286.784 447.379C287.092 447.295 287.302 447.365 287.302 447.407Z" fill="#E0E0E0"/>
<path d="M119.816 447.407C119.816 447.519 118.961 447.547 118.414 448.571C118.245 448.845 118.14 449.153 118.106 449.474C118.072 449.794 118.11 450.117 118.218 450.421C118.379 450.765 118.645 451.05 118.976 451.236C119.308 451.422 119.69 451.5 120.068 451.458C120.448 451.467 120.821 451.355 121.133 451.139C121.446 450.922 121.681 450.612 121.806 450.253C121.884 449.94 121.89 449.614 121.825 449.298C121.759 448.983 121.623 448.686 121.428 448.43C121.03 447.934 120.485 447.576 119.872 447.407C119.872 447.407 120.068 447.281 120.446 447.323C120.993 447.408 121.49 447.686 121.848 448.108C122.131 448.418 122.335 448.79 122.445 449.195C122.555 449.6 122.566 450.025 122.479 450.435C122.304 450.929 121.986 451.36 121.565 451.673C121.144 451.985 120.639 452.165 120.115 452.189C119.592 452.213 119.073 452.08 118.625 451.808C118.177 451.535 117.82 451.135 117.601 450.659C117.473 450.262 117.442 449.839 117.51 449.427C117.578 449.015 117.744 448.625 117.993 448.29C118.308 447.838 118.776 447.514 119.311 447.379C119.605 447.295 119.816 447.365 119.816 447.407Z" fill="#E0E0E0"/>
<path d="M287.513 538.474C287.513 538.601 286.658 538.629 286.111 539.652C285.942 539.926 285.837 540.235 285.803 540.555C285.769 540.875 285.807 541.199 285.915 541.502C286.076 541.846 286.342 542.132 286.673 542.318C287.005 542.504 287.387 542.581 287.765 542.539C288.143 542.54 288.513 542.425 288.823 542.21C289.134 541.994 289.371 541.688 289.503 541.334C289.578 541.021 289.583 540.696 289.517 540.381C289.452 540.066 289.318 539.769 289.125 539.512C288.424 538.545 287.541 538.601 287.569 538.474C287.597 538.348 287.765 538.348 288.143 538.39C288.69 538.484 289.186 538.767 289.545 539.189C289.825 539.498 290.027 539.868 290.135 540.271C290.242 540.673 290.251 541.095 290.162 541.502C289.992 541.998 289.677 542.432 289.258 542.747C288.839 543.062 288.335 543.244 287.811 543.27C287.287 543.296 286.768 543.163 286.32 542.891C285.872 542.618 285.516 542.217 285.298 541.74C285.17 541.343 285.139 540.92 285.207 540.508C285.275 540.096 285.441 539.707 285.691 539.372C286.004 538.921 286.465 538.593 286.994 538.446C287.303 538.376 287.513 538.446 287.513 538.474Z" fill="#E0E0E0"/>
<path d="M311.72 447.407C311.72 447.519 310.865 447.547 310.318 448.571C310.151 448.845 310.045 449.153 310.009 449.473C309.973 449.792 310.006 450.116 310.108 450.421C310.288 450.751 310.557 451.024 310.885 451.209C311.213 451.394 311.586 451.482 311.962 451.465C312.337 451.447 312.701 451.324 313.01 451.11C313.319 450.895 313.562 450.598 313.71 450.253C313.784 449.94 313.788 449.614 313.723 449.3C313.658 448.985 313.524 448.688 313.332 448.43C312.93 447.932 312.38 447.574 311.762 447.407C311.762 447.407 311.958 447.281 312.35 447.323C312.895 447.414 313.391 447.691 313.752 448.108C314.03 448.42 314.231 448.794 314.338 449.198C314.445 449.602 314.456 450.026 314.369 450.435C314.197 450.93 313.881 451.363 313.461 451.677C313.041 451.99 312.537 452.171 312.013 452.195C311.489 452.219 310.97 452.086 310.523 451.812C310.076 451.538 309.721 451.137 309.505 450.659C309.373 450.262 309.34 449.839 309.409 449.426C309.477 449.014 309.645 448.624 309.897 448.29C310.204 447.836 310.669 447.511 311.201 447.379C311.523 447.295 311.72 447.365 311.72 447.407Z" fill="#E0E0E0"/>
<path d="M311.93 538.474C311.93 538.601 311.075 538.629 310.528 539.652C310.367 539.929 310.266 540.237 310.232 540.556C310.198 540.875 310.232 541.197 310.332 541.502C310.494 541.846 310.759 542.132 311.091 542.318C311.423 542.504 311.804 542.581 312.182 542.539C312.563 542.543 312.935 542.429 313.249 542.214C313.562 541.998 313.802 541.691 313.934 541.334C314.009 541.021 314.014 540.696 313.949 540.381C313.883 540.066 313.749 539.769 313.556 539.512C312.855 538.545 311.972 538.601 311.986 538.474C312 538.348 312.182 538.348 312.561 538.39C313.108 538.481 313.606 538.764 313.963 539.189C314.245 539.496 314.45 539.866 314.559 540.269C314.669 540.671 314.681 541.094 314.593 541.502C314.42 541.997 314.103 542.429 313.683 542.743C313.263 543.057 312.758 543.238 312.235 543.264C311.711 543.289 311.191 543.158 310.742 542.887C310.294 542.615 309.936 542.216 309.715 541.74C309.589 541.342 309.56 540.919 309.631 540.507C309.702 540.095 309.87 539.705 310.122 539.372C310.433 538.918 310.895 538.59 311.425 538.446C311.72 538.376 311.93 538.446 311.93 538.474Z" fill="#E0E0E0"/>
<path d="M373.085 447.407C373.085 447.519 372.23 447.547 371.684 448.571C371.516 448.845 371.411 449.153 371.375 449.473C371.338 449.792 371.372 450.116 371.473 450.421C371.653 450.751 371.923 451.024 372.25 451.209C372.578 451.394 372.951 451.482 373.327 451.465C373.703 451.447 374.066 451.324 374.375 451.11C374.685 450.895 374.927 450.598 375.076 450.253C375.149 449.94 375.154 449.614 375.089 449.3C375.023 448.985 374.89 448.688 374.697 448.43C374.295 447.932 373.746 447.574 373.127 447.407C373.127 447.407 373.324 447.281 373.716 447.323C374.262 447.41 374.758 447.688 375.118 448.108C375.396 448.42 375.597 448.794 375.704 449.198C375.811 449.602 375.822 450.026 375.734 450.435C375.563 450.93 375.247 451.363 374.827 451.677C374.407 451.99 373.902 452.171 373.378 452.195C372.855 452.219 372.336 452.086 371.889 451.812C371.442 451.538 371.087 451.137 370.871 450.659C370.743 450.262 370.711 449.839 370.78 449.427C370.848 449.015 371.014 448.625 371.263 448.29C371.57 447.836 372.034 447.511 372.567 447.379C372.889 447.295 373.099 447.365 373.085 447.407Z" fill="#E0E0E0"/>
<path d="M373.296 538.474C373.296 538.601 372.441 538.629 371.894 539.652C371.727 539.927 371.621 540.234 371.585 540.554C371.549 540.873 371.582 541.197 371.684 541.502C371.864 541.833 372.133 542.106 372.461 542.29C372.789 542.475 373.162 542.563 373.537 542.546C373.913 542.528 374.277 542.405 374.586 542.191C374.895 541.977 375.138 541.68 375.286 541.334C375.372 541.014 375.383 540.678 375.32 540.353C375.257 540.027 375.121 539.721 374.922 539.456C374.221 538.489 373.338 538.545 373.352 538.418C373.366 538.292 373.548 538.292 373.94 538.334C374.485 538.432 374.98 538.714 375.342 539.133C375.619 539.443 375.819 539.814 375.927 540.216C376.034 540.618 376.045 541.039 375.959 541.446C375.789 541.942 375.474 542.376 375.055 542.691C374.635 543.006 374.131 543.188 373.608 543.214C373.084 543.239 372.564 543.107 372.116 542.835C371.669 542.562 371.313 542.161 371.095 541.684C370.963 541.287 370.93 540.864 370.999 540.451C371.067 540.039 371.235 539.649 371.487 539.316C371.798 538.862 372.26 538.534 372.791 538.39C373.099 538.376 373.296 538.446 373.296 538.474Z" fill="#E0E0E0"/>
<path d="M119.605 538.474C119.605 538.601 118.75 538.629 118.204 539.652C118.035 539.926 117.93 540.235 117.896 540.555C117.862 540.875 117.9 541.199 118.007 541.502C118.189 541.829 118.458 542.098 118.784 542.28C119.11 542.462 119.481 542.549 119.854 542.532C120.227 542.514 120.588 542.393 120.895 542.181C121.203 541.969 121.446 541.676 121.596 541.334C121.684 541.013 121.695 540.676 121.63 540.35C121.564 540.024 121.423 539.717 121.217 539.456C120.516 538.489 119.633 538.545 119.647 538.418C119.661 538.292 119.844 538.292 120.222 538.334C120.77 538.425 121.267 538.708 121.624 539.133C121.906 539.44 122.111 539.81 122.221 540.213C122.331 540.615 122.342 541.038 122.255 541.446C122.081 541.941 121.764 542.373 121.344 542.687C120.924 543.001 120.42 543.182 119.896 543.208C119.372 543.233 118.852 543.102 118.404 542.831C117.955 542.559 117.597 542.16 117.377 541.684C117.252 541.286 117.223 540.865 117.291 540.453C117.359 540.042 117.523 539.652 117.769 539.316C118.088 538.864 118.554 538.537 119.087 538.39C119.395 538.376 119.605 538.446 119.605 538.474Z" fill="#E0E0E0"/>
<path d="M354.429 548.412C354.429 548.412 354.429 548.216 354.429 547.866C354.429 547.515 354.429 546.983 354.429 546.324C354.429 544.922 354.429 542.932 354.429 540.353C354.429 535.138 354.429 527.569 354.331 518.052C354.331 499.017 354.233 472.189 354.177 440.96L354.513 441.296H302.469L302.833 440.932C302.833 482.505 302.763 520.365 302.735 548.44L302.469 548.174L340.454 548.314L350.855 548.384H353.574H354.513H353.63H350.953L340.622 548.454L302.469 548.595H302.202V548.328C302.202 520.295 302.132 482.449 302.104 440.819V440.455H354.864V440.805C354.793 472.189 354.737 499.087 354.695 518.192C354.695 527.667 354.625 535.209 354.597 540.409C354.597 542.96 354.597 544.936 354.597 546.31C354.597 546.955 354.597 547.445 354.597 547.81C354.56 548.015 354.503 548.217 354.429 548.412Z" fill="#E0E0E0"/>
<path d="M353.237 492.808C353.237 493.018 342.178 493.172 328.568 493.172C314.958 493.172 303.884 493.018 303.884 492.808C303.884 492.598 314.929 492.443 328.568 492.443C342.206 492.443 353.237 492.612 353.237 492.808Z" fill="#E0E0E0"/>
<path d="M514.038 548.412C514.038 548.412 514.038 547.726 514.038 546.436C514.038 545.146 514.038 543.226 514.038 540.731C514.038 535.727 514.038 528.41 513.968 519.047C513.968 500.349 513.87 473.507 513.814 440.904L514.108 441.198L363.007 441.268L363.372 440.904C363.372 479.394 363.372 515.921 363.372 548.412L363.035 548.076L471.974 548.244L503.021 548.328H511.277H513.407H514.15H513.449H511.361H503.161L472.198 548.426L363.035 548.595H362.699V548.258C362.699 515.767 362.699 479.239 362.699 440.749V440.385H363.077L514.178 440.455H514.473V440.749C514.473 473.422 514.347 500.335 514.319 519.089C514.319 528.41 514.319 535.713 514.234 540.703C514.234 543.17 514.234 545.048 514.234 546.31C514.234 547.571 514.038 548.412 514.038 548.412Z" fill="#E0E0E0"/>
<path d="M4.26111 63.7674V228.899H127.146V63.7393C127.146 63.7393 4.26111 65.099 4.26111 63.7674Z" fill="#E0E0E0"/>
<path d="M4.26111 64.1178V89.7966L127.188 90.5535V63.7674L4.26111 64.1178Z" fill="#EBEBEB"/>
<path d="M48.7224 75.5836V80.6156H88.0816V76.2564C88.0816 76.2564 49.7316 75.5836 48.7224 75.5836Z" fill="white"/>
<path d="M49.5915 101.627H11.1154V142.892H49.5915V101.627Z" fill="#FAFAFA"/>
<path d="M44.223 186.106H45.9191H50.7969H68.6823L68.5702 186.218C68.5702 173.939 68.5702 157.708 68.5702 139.963V129.478H68.7104H104.089L103.977 129.59C104.103 121.937 104.201 115.7 104.271 111.368C104.271 109.252 104.271 107.584 104.369 106.378C104.467 105.173 104.369 104.626 104.369 104.626C104.369 104.626 104.369 105.229 104.369 106.378C104.369 107.528 104.369 109.182 104.369 111.368C104.369 115.756 104.257 121.993 104.173 129.59V129.702H104.061H68.6823L68.8365 129.548V139.893C68.8365 157.666 68.8365 173.897 68.8365 186.148V186.232H68.7244H50.839H45.9611L44.223 186.106Z" fill="#FAFAFA"/>
<path d="M116.662 198.329H113.746H105.505H76.0692H75.9431V198.203C75.9431 186.344 75.9431 172.356 75.9431 157.428V138.379H100.346L100.234 138.505C100.234 127.095 100.234 117.606 100.234 110.92C100.234 107.64 100.234 105.047 100.234 103.211C100.234 101.375 100.234 100.491 100.234 100.491C100.234 100.491 100.234 101.445 100.234 103.211C100.234 104.977 100.234 107.64 100.234 110.92C100.234 117.606 100.234 127.095 100.234 138.505V138.631H75.845L75.9851 138.491C75.9851 144.574 75.9851 150.966 75.9851 157.526C75.9851 172.454 75.9851 186.443 75.9851 198.301L75.859 198.175H105.294H113.536L116.662 198.329Z" fill="#EBEBEB"/>
<path d="M11.3677 151.905V155.774H42.499V151.134L11.3677 151.905Z" fill="#FAFAFA"/>
<path d="M11.1154 158.647V162.53H42.2467V157.876L11.1154 158.647Z" fill="#FAFAFA"/>
<path d="M561.345 382.622C561.345 380.533 561.345 344.776 561.233 283.985L561.345 284.098H346.622L346.776 283.957C346.776 318.635 346.776 352.009 346.776 382.594L346.636 382.453L561.373 382.594L346.636 382.734H346.495V283.845H346.65H561.373H561.471V283.957C561.429 344.72 561.345 380.533 561.345 382.622Z" fill="#EBEBEB"/>
<path d="M562.578 560.621C562.578 560.817 437.128 560.986 282.425 560.986C127.721 560.986 2.24268 560.817 2.24268 560.621C2.24268 560.425 127.665 560.257 282.425 560.257C437.184 560.257 562.578 560.481 562.578 560.621Z" fill="#263238"/>
<path d="M99.211 410.992H87.2546V560.607H99.211V410.992Z" fill="#263238"/>
<path d="M473.558 410.992H461.602V560.621H473.558V410.992Z" fill="#263238"/>
<path d="M483.846 393.583H82.8814C78.2831 393.583 74.5554 397.31 74.5554 401.909V404.193C74.5554 408.792 78.2831 412.519 82.8814 412.519H483.846C488.444 412.519 492.172 408.792 492.172 404.193V401.909C492.172 397.31 488.444 393.583 483.846 393.583Z" fill="#455A64"/>
<path d="M375.833 76.2003L328.386 59.1699L281.415 75.9901C275.416 78.7934 270.202 80.5175 270.202 86.0962V113.906C270.099 133.435 275.438 152.607 285.621 169.272C295.796 186.112 310.88 199.436 328.848 207.454C348.051 201.216 362.391 184.578 371.151 170.365C381.358 153.707 386.722 134.535 386.64 114.999V89.9789C386.64 82.0033 382.407 78.1206 375.833 76.2003Z" fill="#FFC100"/>
<g opacity="0.3">
<path d="M328.848 191.306C314.614 184.878 302.681 174.256 294.647 160.862C286.582 147.675 282.345 132.503 282.411 117.045V97.5339C282.411 93.1186 285.074 88.9696 290.372 86.5027L328.4 72.2897V59.1699L281.429 75.9901C276.495 78.1347 270.216 80.5175 270.216 86.0962V113.906C270.113 133.435 275.452 152.607 285.634 169.272C295.81 186.112 310.894 199.436 328.862 207.454L328.848 191.306Z" fill="black"/>
</g>
<g opacity="0.4">
<path d="M328.848 207.454C332.067 206.399 335.186 205.063 338.169 203.459C345.487 199.31 352.136 194.078 357.891 187.942C363.121 182.315 367.722 176.134 371.613 169.51C381.956 152.737 387.178 133.31 386.639 113.611V90.6377C386.639 79.1999 380.738 78.3589 375.804 76.2003L328.386 59.1699V72.2897L366.876 86.7129C372.174 89.1939 374.837 93.3289 374.837 97.7582V117.27C374.903 132.725 370.661 147.893 362.587 161.072C354.737 174.393 342.95 184.951 328.848 191.292V207.454Z" fill="black"/>
</g>
<path opacity="0.5" d="M340.973 115.798V112.041C340.865 108.847 339.52 105.82 337.223 103.599C334.925 101.378 331.855 100.136 328.659 100.136C325.463 100.136 322.392 101.378 320.095 103.599C317.797 105.82 316.453 108.847 316.345 112.041V115.868C314.711 116.11 313.217 116.931 312.137 118.181C311.056 119.431 310.46 121.028 310.458 122.68V144.827C310.462 146.653 311.19 148.404 312.483 149.694C313.776 150.984 315.528 151.709 317.354 151.709H340.342C341.247 151.711 342.143 151.534 342.98 151.189C343.817 150.844 344.577 150.337 345.217 149.698C345.858 149.059 346.366 148.3 346.713 147.464C347.06 146.628 347.238 145.732 347.238 144.827V122.68C347.242 120.958 346.601 119.296 345.441 118.023C344.282 116.749 342.688 115.955 340.973 115.798ZM332.002 139.29H325.989L326.928 134.959C326.264 134.531 325.757 133.899 325.482 133.159C325.207 132.418 325.179 131.609 325.402 130.851C325.625 130.093 326.088 129.428 326.72 128.955C327.353 128.482 328.121 128.226 328.911 128.226C329.701 128.226 330.47 128.482 331.102 128.955C331.735 129.428 332.197 130.093 332.421 130.851C332.644 131.609 332.616 132.418 332.341 133.159C332.066 133.899 331.558 134.531 330.895 134.959L332.002 139.29ZM338.324 115.77H318.994V112.041C319.09 109.542 320.149 107.176 321.951 105.442C323.754 103.707 326.158 102.738 328.659 102.738C331.16 102.738 333.564 103.707 335.366 105.442C337.168 107.176 338.228 109.542 338.324 112.041V115.77Z" fill="white"/>
<path d="M290.092 115.532C289.691 114.283 289.456 112.987 289.391 111.677C289.028 108.542 288.897 105.384 288.998 102.23C288.998 100.379 289.181 98.6273 289.349 97.0294C289.412 95.5712 289.77 94.1409 290.4 92.8244C290.856 91.9284 291.582 91.198 292.475 90.7359C293.119 90.4275 293.526 90.4415 293.526 90.4976C292.382 91.0278 291.463 91.9466 290.933 93.0907C290.417 94.361 290.136 95.7147 290.106 97.0855C289.98 98.6694 289.881 100.407 289.825 102.244C289.727 105.902 289.825 109.252 289.966 111.607C290.119 112.909 290.161 114.222 290.092 115.532Z" fill="white"/>
<path d="M290.821 127.642C290.596 127.642 290.386 126.507 290.358 125.091C290.33 123.675 290.498 122.526 290.723 122.512C290.947 122.498 291.157 123.661 291.185 125.077C291.213 126.493 291.017 127.642 290.821 127.642Z" fill="white"/>
<path d="M391.938 62.1275C393.22 62.4341 394.476 62.8418 395.694 63.3469C397.183 63.9413 398.595 64.7131 399.899 65.6457C401.743 66.9044 403.269 68.5743 404.357 70.5235C405.668 72.9999 406.369 75.7533 406.403 78.5552C406.403 81.6108 406.403 84.9188 406.403 88.4931C406.403 95.6276 406.473 103.785 406.403 112.882C406.272 122.879 404.983 132.827 402.563 142.528C399.72 153.824 395.329 164.673 389.513 174.767C383.005 186.066 374.941 196.395 365.558 205.449C355.746 214.827 343.636 223.124 329.493 227.526H329.367H329.241C324.287 225.409 319.454 223.023 314.761 220.377C309.964 217.597 305.343 214.521 300.927 211.168C291.813 204.195 283.701 196.003 276.818 186.821C261.928 167.196 253.069 143.664 251.321 119.092C250.873 113.275 250.999 107.528 250.985 101.879V85.1571C250.985 82.3537 250.985 79.7186 250.985 77.0414C250.941 75.6895 250.988 74.3361 251.125 72.9905C251.33 71.622 251.89 70.3314 252.751 69.248C254.515 67.2556 256.704 65.6845 259.157 64.6505C261.497 63.5432 263.852 62.576 266.165 61.5528L328.666 40.5276H328.736H328.82L375.188 56.3806L387.565 60.5856L390.746 61.693L391.826 62.0994C391.826 62.0994 391.447 62.0013 390.732 61.763L387.523 60.7118L375.104 56.5067L328.778 40.9341H328.932L266.487 62.1415C264.189 63.1647 261.82 64.1319 259.479 65.2392C257.114 66.2363 255.002 67.7497 253.298 69.6685C252.506 70.666 251.993 71.856 251.812 73.1167C251.684 74.4254 251.642 75.7411 251.686 77.0554V85.1711C251.686 90.6236 251.686 96.1883 251.686 101.823C251.686 107.458 251.588 113.205 252.036 118.98C253.782 143.415 262.596 166.816 277.407 186.33C284.255 195.459 292.324 203.605 301.389 210.537C305.777 213.873 310.369 216.93 315.14 219.69C319.825 222.352 324.654 224.753 329.605 226.881H329.367C343.384 222.536 355.368 214.266 365.18 204.987C374.532 195.986 382.576 185.72 389.078 174.486C394.866 164.464 399.256 153.697 402.128 142.486C404.564 132.829 405.876 122.924 406.039 112.966C406.039 103.884 406.039 95.7117 406.123 88.5772C406.123 85.0029 406.123 81.6809 406.123 78.6533C406.119 75.8908 405.451 73.1698 404.175 70.7198C403.117 68.796 401.636 67.1377 399.843 65.87C398.534 64.938 397.123 64.1575 395.638 63.5432C394.722 63.1588 393.786 62.8219 392.835 62.534L391.938 62.1275Z" fill="#FFC100"/>
<path d="M244.285 283.523L247.775 349.402L335.464 351.406L328.974 300.217L335.674 247.906C331.273 223.405 296.918 221.709 296.918 221.709L269.964 221.274C260.734 220.607 251.511 222.653 243.43 227.161C243.43 227.161 216.069 242.061 216.307 279.921" fill="#455A64"/>
<path d="M297.184 220.952C296.584 222.805 295.79 224.591 294.815 226.278C293.505 228.202 291.742 229.774 289.682 230.856C287.621 231.939 285.327 232.499 282.999 232.488C280.669 232.533 278.365 231.997 276.294 230.927C274.224 229.857 272.453 228.289 271.141 226.362C270.39 225.154 269.823 223.841 269.459 222.466C269.358 221.946 269.203 221.439 268.996 220.952C268.956 221.489 269.003 222.028 269.137 222.55C269.398 223.996 269.91 225.386 270.65 226.657C271.765 228.567 273.366 230.149 275.29 231.24C277.624 232.62 280.288 233.342 282.999 233.329C285.709 233.337 288.367 232.595 290.68 231.184C292.574 230.053 294.166 228.48 295.32 226.601C296.074 225.339 296.627 223.968 296.96 222.536C297.132 222.026 297.208 221.489 297.184 220.952Z" fill="#263238"/>
<path d="M317.789 243C313.61 246.333 310.196 250.524 307.778 255.29C305.36 260.057 303.994 265.287 303.772 270.627C303.099 287.363 302.062 310.603 301.445 311.767C299.525 315.355 248.798 312.299 243.458 311.921L237.01 309.931C237.01 309.931 225.152 299.67 222.993 302.754C220.835 305.838 229.217 307.814 230.843 313.869C232.469 319.925 215.621 315.187 214.527 314.444L210.182 313.21C210.182 313.21 212.761 321.48 214.962 324.102C221.97 332.512 238.075 336.717 238.075 336.717C238.075 336.717 303.772 358.064 330.306 340.445C338.982 334.684 340.454 278.211 337.174 256.344C336.545 252.173 334.427 248.37 331.211 245.639C327.995 242.907 323.9 241.432 319.681 241.486L317.789 243Z" fill="#FFBE9D"/>
<path d="M220.33 322.532C219.051 321.739 217.716 321.041 216.335 320.443C215.037 319.688 213.688 319.023 212.298 318.453C213.434 319.46 214.72 320.283 216.111 320.892C217.425 321.651 218.848 322.204 220.33 322.532Z" fill="#EB996E"/>
<path d="M328.666 235.109C336.754 242.846 344.589 258.377 341.688 289.452L298.586 287.672L299.693 245.145C299.756 243.014 300.292 240.924 301.261 239.026C302.231 237.128 303.611 235.469 305.3 234.17C308.668 231.518 312.873 230.155 317.156 230.327C321.44 230.499 325.521 232.195 328.666 235.109Z" fill="#455A64"/>
<path d="M242.771 552.071L241.622 535.769L272.136 533.4L274.085 557.229L272.206 557.495C263.796 558.617 229.483 562.611 223.722 561.336C217.303 559.92 242.771 552.071 242.771 552.071Z" fill="#FFC100"/>
<g opacity="0.3">
<path d="M262.997 557.846C263.251 555.235 264.459 552.809 266.389 551.034C268.288 549.249 270.792 548.247 273.398 548.23L274.071 556.752L262.997 557.846Z" fill="white"/>
</g>
<g opacity="0.3">
<path d="M230.366 556.36C230.366 556.36 221.48 559.682 222.727 561.098C223.975 562.513 258.82 559.78 274.085 557.229L273.987 556.556L233.338 560.074C233.338 560.074 232.146 556.276 230.366 556.36Z" fill="white"/>
</g>
<path d="M274.463 556.5L273.944 556.598L272.445 556.808L266.908 557.481C262.24 558.014 255.779 558.659 248.686 559.233C241.594 559.808 235.034 560.159 230.338 560.369L224.731 560.565H223.218C223.041 560.59 222.862 560.59 222.685 560.565H223.218L224.731 560.467L230.338 560.144C235.034 559.878 241.552 559.472 248.672 558.897C255.793 558.322 262.282 557.72 266.894 557.257L272.501 556.696L274 556.556C274.152 556.521 274.307 556.502 274.463 556.5Z" fill="#263238"/>
<path d="M233.352 560.551C232.838 558.689 231.668 557.076 230.058 556.01C231.032 556.284 231.87 556.907 232.413 557.762C233.063 558.541 233.398 559.537 233.352 560.551Z" fill="#263238"/>
<path d="M242.056 555.281C241.972 555.281 241.51 554.846 241.005 554.187C240.5 553.529 240.164 552.926 240.248 552.87C240.332 552.814 240.809 553.29 241.299 553.963C241.79 554.636 242.14 555.211 242.056 555.281Z" fill="#263238"/>
<path d="M244.425 553.781C244.425 553.865 243.864 553.571 243.304 553.15C242.743 552.73 242.323 552.295 242.393 552.211C242.463 552.127 242.967 552.421 243.528 552.856C244.089 553.29 244.565 553.697 244.425 553.781Z" fill="#263238"/>
<path d="M245.771 550.781C245.271 550.998 244.731 551.108 244.187 551.104C243.656 551.225 243.105 551.225 242.575 551.104C243.072 550.879 243.613 550.769 244.159 550.781C244.688 550.651 245.241 550.651 245.771 550.781Z" fill="#263238"/>
<path d="M246.149 548.707C245.646 549.089 245.041 549.313 244.411 549.352C243.794 549.511 243.143 549.477 242.547 549.253C243.141 549.115 243.746 549.026 244.355 548.987C244.943 548.84 245.544 548.746 246.149 548.707Z" fill="#263238"/>
<path d="M240.823 552.702C240.181 552.856 239.518 552.903 238.86 552.842C238.142 552.81 237.428 552.707 236.73 552.533C236.304 552.454 235.89 552.323 235.496 552.141C235.253 552.023 235.063 551.818 234.964 551.566C234.923 551.424 234.923 551.273 234.966 551.132C235.008 550.99 235.09 550.864 235.202 550.767C235.921 550.341 236.765 550.177 237.591 550.305C238.417 550.433 239.173 550.844 239.729 551.468C240.063 551.832 240.316 552.262 240.472 552.73C240.538 552.895 240.571 553.071 240.57 553.248C240.321 552.662 239.975 552.122 239.547 551.65C239.063 551.169 238.45 550.837 237.781 550.697C237.39 550.594 236.983 550.571 236.584 550.629C236.184 550.687 235.8 550.824 235.454 551.034C235.16 551.286 235.314 551.65 235.679 551.819C236.043 551.987 236.423 552.118 236.814 552.211C237.49 552.386 238.179 552.508 238.874 552.575C240.066 552.688 240.809 552.631 240.823 552.702Z" fill="#263238"/>
<path d="M240.36 552.828C240.07 552.422 239.95 551.919 240.024 551.426C240.047 550.905 240.191 550.396 240.444 549.94C240.588 549.638 240.806 549.376 241.078 549.18C241.35 548.984 241.667 548.86 242 548.819C242.101 548.829 242.199 548.86 242.288 548.909C242.377 548.958 242.455 549.024 242.518 549.104C242.581 549.184 242.627 549.275 242.653 549.373C242.68 549.471 242.687 549.573 242.673 549.674C242.657 549.988 242.57 550.295 242.421 550.571C242.197 551.027 241.914 551.451 241.58 551.833C241.019 552.491 240.542 552.758 240.514 552.716C240.486 552.674 240.879 552.337 241.369 551.678C241.661 551.29 241.91 550.872 242.112 550.431C242.337 549.996 242.463 549.239 241.972 549.183C241.482 549.127 241.019 549.702 240.739 550.123C240.497 550.525 240.344 550.974 240.29 551.44C240.264 551.904 240.288 552.369 240.36 552.828Z" fill="#263238"/>
<path d="M273.188 548.188C273.188 548.188 272.304 548.188 270.945 548.455C269.159 548.79 267.505 549.628 266.177 550.869C264.849 552.11 263.902 553.703 263.446 555.463C263.081 556.865 263.109 557.692 263.039 557.692C262.999 557.488 262.999 557.278 263.039 557.075C263.05 556.508 263.121 555.945 263.25 555.393C263.654 553.556 264.606 551.886 265.98 550.602C267.354 549.318 269.085 548.481 270.945 548.202C271.501 548.118 272.065 548.09 272.627 548.118C272.816 548.119 273.004 548.143 273.188 548.188Z" fill="#263238"/>
<path d="M269.024 535.741C269.41 537.807 269.663 539.895 269.781 541.993C270.035 544.076 270.166 546.173 270.174 548.272C269.788 546.207 269.535 544.119 269.417 542.021C269.163 539.937 269.032 537.84 269.024 535.741Z" fill="#263238"/>
<path d="M258.933 555.169C256.033 555.969 253.012 556.235 250.018 555.953C250.018 555.841 252.022 555.813 254.475 555.589C256.928 555.365 258.904 555.07 258.933 555.169Z" fill="#263238"/>
<path d="M264.904 554.692C264.988 554.762 264.777 555.126 264.609 555.603C264.441 556.08 264.371 556.5 264.259 556.5C264.147 556.5 264.063 556.024 264.259 555.477C264.455 554.93 264.834 554.636 264.904 554.692Z" fill="#263238"/>
<path d="M266.992 551.72C267.062 551.72 266.894 552.113 266.6 552.463C266.305 552.814 266.011 553.024 265.941 552.968C265.871 552.912 266.025 552.561 266.319 552.225C266.614 551.889 266.866 551.65 266.992 551.72Z" fill="#263238"/>
<path d="M270.076 550.179C270.076 550.291 269.655 550.319 269.221 550.515C268.786 550.711 268.478 550.963 268.394 550.907C268.31 550.851 268.52 550.403 269.067 550.165C269.613 549.926 270.09 550.08 270.076 550.179Z" fill="#263238"/>
<path d="M272.318 549.394C272.318 549.492 272.206 549.66 271.954 549.772C271.702 549.884 271.477 549.912 271.435 549.772C271.393 549.632 271.547 549.506 271.8 549.394C272.052 549.281 272.276 549.267 272.318 549.394Z" fill="#263238"/>
<path d="M148.971 552.842L149.377 536.512L179.99 537.087L179.639 560.985L177.733 561.084C169.323 561.392 134.73 562.051 129.109 560.243C122.857 558.21 148.971 552.842 148.971 552.842Z" fill="#FFC100"/>
<g opacity="0.3">
<path d="M168.538 560.481C169.049 557.91 170.485 555.616 172.575 554.033C174.625 552.46 177.191 551.714 179.765 551.945L179.611 560.495L168.538 560.481Z" fill="white"/>
</g>
<g opacity="0.3">
<path d="M136.201 555.925C136.201 555.925 127.034 558.378 128.142 559.906C129.249 561.434 164.193 562.065 179.639 560.985V560.313L138.879 559.906C138.879 559.906 138.038 556.024 136.201 555.925Z" fill="white"/>
</g>
<path d="M180.088 560.299H179.555L178.041 560.369L172.435 560.509C167.725 560.593 161.221 560.621 154.059 560.509C146.896 560.397 140.392 560.131 135.697 559.878L130.09 559.542L128.59 559.43C128.413 559.45 128.234 559.45 128.057 559.43C128.235 559.414 128.413 559.414 128.59 559.43H130.104L135.711 559.64C140.406 559.822 146.924 560.032 154.073 560.159C161.221 560.285 167.725 560.299 172.435 560.285H179.513C179.705 560.265 179.898 560.269 180.088 560.299Z" fill="#263238"/>
<path d="M138.836 560.383C138.606 559.46 138.272 558.567 137.841 557.72C137.309 556.924 136.683 556.194 135.977 555.547C136.879 555.975 137.629 556.666 138.13 557.53C138.63 558.393 138.857 559.388 138.78 560.383H138.836Z" fill="#263238"/>
<path d="M147.947 555.967C147.863 555.967 147.443 555.491 147.008 554.776C146.574 554.061 146.293 553.444 146.377 553.374C146.462 553.304 146.882 553.865 147.317 554.566C147.751 555.267 148.031 555.911 147.947 555.967Z" fill="#263238"/>
<path d="M150.442 554.706C150.442 554.776 149.896 554.454 149.377 553.963C148.858 553.473 148.494 553.024 148.564 552.954C148.634 552.884 149.111 553.206 149.629 553.697C150.148 554.187 150.512 554.636 150.442 554.706Z" fill="#263238"/>
<path d="M152.054 551.847C151.541 552.023 150.995 552.08 150.456 552.015C149.916 552.08 149.367 552.012 148.858 551.819C149.91 551.575 151.003 551.575 152.054 551.819V551.847Z" fill="#263238"/>
<path d="M152.643 549.814C152.11 550.159 151.483 550.331 150.849 550.305C150.223 550.398 149.583 550.3 149.013 550.024C149.616 549.936 150.226 549.903 150.835 549.926C151.434 549.841 152.038 549.804 152.643 549.814Z" fill="#263238"/>
<path d="M146.952 553.276C146.303 553.392 145.639 553.392 144.99 553.276C144.279 553.175 143.58 553.006 142.901 552.772C142.486 552.645 142.086 552.471 141.71 552.253C141.481 552.113 141.311 551.893 141.233 551.636C141.207 551.49 141.224 551.34 141.281 551.203C141.338 551.067 141.433 550.949 141.556 550.865C142.312 550.506 143.171 550.423 143.982 550.631C144.794 550.838 145.507 551.323 145.999 552.001C146.289 552.395 146.499 552.843 146.616 553.318C146.653 553.494 146.653 553.675 146.616 553.851C146.42 553.242 146.126 552.669 145.747 552.155C145.31 551.628 144.731 551.239 144.079 551.034C143.314 550.761 142.473 550.802 141.738 551.146C141.415 551.384 141.542 551.748 141.878 551.959C142.226 552.156 142.592 552.321 142.971 552.449C143.629 552.688 144.303 552.875 144.99 553.01C146.209 553.206 146.952 553.22 146.952 553.276Z" fill="#263238"/>
<path d="M146.448 553.374C146.209 552.948 146.134 552.45 146.237 551.973C146.316 551.467 146.513 550.987 146.812 550.571C146.981 550.281 147.222 550.04 147.512 549.87C147.802 549.701 148.13 549.609 148.466 549.604C148.663 549.651 148.833 549.772 148.943 549.941C149.053 550.111 149.093 550.317 149.055 550.515C149.001 550.831 148.882 551.131 148.704 551.398C148.433 551.821 148.113 552.212 147.751 552.561C147.434 552.902 147.046 553.17 146.616 553.346C146.616 553.346 147.008 552.996 147.569 552.379C147.888 552.021 148.17 551.631 148.41 551.216C148.69 550.809 148.887 550.066 148.41 549.968C147.933 549.87 147.401 550.389 147.092 550.781C146.815 551.157 146.619 551.587 146.518 552.043C146.454 552.484 146.43 552.929 146.448 553.374Z" fill="#263238"/>
<path d="M179.611 551.917C179.611 551.987 178.728 551.819 177.355 551.917C175.545 552.083 173.82 552.758 172.379 553.865C170.937 554.971 169.839 556.463 169.211 558.168C168.72 559.472 168.664 560.355 168.594 560.341C168.555 560.137 168.555 559.928 168.594 559.724C168.657 559.166 168.779 558.616 168.959 558.084C169.539 556.285 170.656 554.705 172.159 553.558C173.662 552.411 175.48 551.75 177.369 551.664C177.928 551.6 178.492 551.6 179.051 551.664C179.254 551.706 179.446 551.792 179.611 551.917Z" fill="#263238"/>
<path d="M176.668 539.119C176.838 541.213 176.89 543.314 176.822 545.413C176.873 547.509 176.798 549.606 176.598 551.692C176.427 549.599 176.376 547.498 176.443 545.399C176.402 543.303 176.476 541.207 176.668 539.119Z" fill="#263238"/>
<path d="M164.753 557.481C161.788 557.991 158.754 557.967 155.797 557.411C155.797 557.299 157.815 557.411 160.268 557.481C162.721 557.551 164.739 557.383 164.753 557.481Z" fill="#263238"/>
<path d="M170.753 557.593C170.753 557.664 170.57 558.014 170.36 558.462C170.15 558.911 170.038 559.318 169.926 559.318C169.814 559.318 169.772 558.827 170.024 558.308C170.276 557.79 170.683 557.509 170.753 557.593Z" fill="#263238"/>
<path d="M173.079 554.874C173.164 554.944 172.953 555.267 172.631 555.575C172.309 555.883 171.986 556.094 171.916 556.01C171.846 555.925 172.056 555.631 172.379 555.309C172.701 554.986 172.981 554.748 173.079 554.874Z" fill="#263238"/>
<path d="M176.317 553.585C176.317 553.697 175.883 553.683 175.434 553.837C174.986 553.991 174.649 554.215 174.579 554.145C174.509 554.075 174.762 553.655 175.322 553.472C175.883 553.29 176.345 553.472 176.317 553.585Z" fill="#263238"/>
<path d="M178.686 553.024C178.686 553.122 178.546 553.276 178.294 553.374C178.041 553.473 177.789 553.459 177.761 553.374C177.733 553.29 177.901 553.136 178.154 553.038C178.406 552.94 178.588 552.926 178.686 553.024Z" fill="#263238"/>
<path d="M175.883 347.524L280.855 346.206L258.918 395.559L191.778 395.825L185.316 547.025H144.303L148.214 378.375C148.392 370.778 151.28 363.495 156.357 357.84C161.433 352.186 168.363 348.532 175.897 347.538L175.883 347.524Z" fill="#263238"/>
<path d="M186.676 535.377C186.676 535.153 177.158 534.97 165.412 534.97C153.666 534.97 144.163 535.153 144.163 535.377C144.163 535.601 153.68 535.797 165.412 535.797C177.144 535.797 186.676 535.601 186.676 535.377Z" fill="#455A64"/>
<path d="M275.655 399.582L278.612 544.782L231.165 547.109C231.165 547.109 223.61 404.852 227.381 364.484C229.96 336.857 335.394 348.729 335.394 348.729C336.922 403.745 275.655 399.582 275.655 399.582Z" fill="#263238"/>
<path d="M278.612 533.33C278.01 533.232 277.398 533.209 276.79 533.26L271.814 533.372C267.609 533.513 261.82 533.765 255.428 534.087C249.037 534.41 243.234 534.746 239.043 535.026L234.095 535.419C233.479 535.426 232.867 535.511 232.272 535.671C232.88 535.759 233.496 535.783 234.109 535.741L239.085 535.615C243.29 535.489 249.079 535.237 255.47 534.914C261.862 534.592 267.665 534.255 271.856 533.961L276.804 533.583C277.414 533.57 278.021 533.485 278.612 533.33Z" fill="#455A64"/>
<path d="M276.257 387.387C275.72 389.685 275.447 392.036 275.444 394.396C275.173 396.724 275.173 399.076 275.444 401.404C275.982 399.107 276.255 396.755 276.257 394.396C276.528 392.068 276.528 389.716 276.257 387.387Z" fill="#455A64"/>
<path d="M278.093 346.486C277.795 346.45 277.494 346.45 277.196 346.486H274.631C272.403 346.557 269.165 346.669 265.184 346.893C261.203 347.117 256.451 347.468 251.167 348.295C245.421 349.072 239.904 351.055 234.978 354.112C233.702 354.967 232.539 355.98 231.516 357.125C230.509 358.262 229.738 359.586 229.245 361.022C228.4 363.679 227.841 366.418 227.577 369.194C227.141 373.853 226.944 378.531 226.988 383.21V392.658C226.988 393.695 226.988 394.536 226.988 395.223C226.952 395.521 226.952 395.822 226.988 396.12C227.065 395.827 227.107 395.526 227.114 395.223C227.114 394.648 227.24 393.821 227.296 392.658C227.423 390.429 227.493 387.205 227.563 383.225C227.633 379.244 227.717 374.492 228.32 369.278C228.605 366.559 229.169 363.878 230.002 361.274C231.064 358.583 232.973 356.31 235.44 354.798C240.26 351.807 245.649 349.85 251.265 349.052C256.451 348.239 261.189 347.832 265.156 347.524L274.575 346.865L277.126 346.655C277.454 346.64 277.779 346.583 278.093 346.486Z" fill="#455A64"/>
<path d="M282.593 233.273C280.712 233.264 278.851 232.883 277.118 232.152C275.385 231.421 273.813 230.355 272.494 229.014C271.174 227.674 270.132 226.086 269.429 224.341C268.725 222.597 268.374 220.73 268.394 218.849C268.394 213.901 268.534 209.612 268.534 209.612C268.534 209.612 257.082 208.547 256.241 197.207C255.4 185.868 255.765 159.698 255.765 159.698C262.043 156.531 269.052 155.096 276.069 155.542C283.087 155.988 289.858 158.299 295.685 162.236L297.451 163.427L296.904 219.158C296.871 222.925 295.346 226.526 292.664 229.171C289.981 231.817 286.36 233.291 282.593 233.273Z" fill="#FFBE9D"/>
<path d="M268.198 190.227C267.348 190.452 266.465 190.524 265.59 190.437C265.358 190.477 265.121 190.477 264.89 190.437C264.728 190.4 264.577 190.326 264.449 190.222C264.32 190.117 264.217 189.985 264.147 189.835C263.991 189.267 264.036 188.663 264.273 188.125L265.24 184.845C266.642 180.219 268.043 176.533 268.24 176.603C268.436 176.673 267.511 180.485 266.081 185.111C265.717 186.232 265.38 187.298 265.044 188.363C264.86 188.732 264.783 189.144 264.819 189.554C264.819 189.779 265.198 189.849 265.604 189.863C266.483 189.836 267.36 189.96 268.198 190.227Z" fill="#263238"/>
<path d="M268.394 209.458C273.639 209.232 278.699 207.451 282.929 204.342C282.929 204.342 279.93 212.752 268.548 212.388L268.394 209.458Z" fill="#EB996E"/>
<path d="M294.465 175.972C294.675 175.888 301.642 174.977 300.983 183.205C300.324 191.432 292.222 188.054 292.222 187.816C292.222 187.578 294.465 175.972 294.465 175.972Z" fill="#FFBE9D"/>
<path d="M295.026 185.125C295.026 185.125 295.152 185.237 295.39 185.363C295.716 185.54 296.099 185.58 296.455 185.475C297.012 185.182 297.481 184.746 297.814 184.211C298.146 183.676 298.331 183.063 298.348 182.434C298.431 181.728 298.349 181.014 298.109 180.345C298.057 180.081 297.94 179.834 297.769 179.626C297.598 179.418 297.378 179.255 297.128 179.154C296.967 179.095 296.789 179.095 296.628 179.154C296.466 179.213 296.331 179.327 296.245 179.476C296.119 179.7 296.161 179.869 296.119 179.883C296.077 179.897 295.951 179.728 296.035 179.392C296.106 179.192 296.238 179.021 296.413 178.901C296.652 178.754 296.938 178.704 297.212 178.761C297.546 178.857 297.849 179.036 298.094 179.281C298.339 179.526 298.518 179.83 298.614 180.163C298.905 180.907 299.01 181.71 298.922 182.504C298.907 183.238 298.674 183.952 298.252 184.554C297.83 185.155 297.239 185.618 296.553 185.882C296.326 185.932 296.09 185.929 295.864 185.873C295.638 185.817 295.428 185.71 295.25 185.559C295.026 185.321 295.026 185.139 295.026 185.125Z" fill="#EB996E"/>
<path d="M256.592 160.385C255.205 159.973 253.994 159.112 253.149 157.938C252.304 156.763 251.873 155.341 251.924 153.895C252.026 152.451 252.517 151.061 253.347 149.873C254.176 148.686 255.312 147.746 256.634 147.153C257.967 146.586 259.405 146.306 260.854 146.33C262.302 146.354 263.73 146.682 265.044 147.294C265.445 145.176 266.587 143.271 268.265 141.92C269.944 140.568 272.048 139.858 274.202 139.917C276.356 139.976 278.419 140.8 280.021 142.242C281.622 143.683 282.658 145.648 282.943 147.784C283.224 145.598 285.747 144.378 287.905 144.238C289.004 144.126 290.115 144.266 291.152 144.647C292.189 145.029 293.125 145.641 293.89 146.439C294.629 147.257 295.038 148.321 295.038 149.424C295.038 150.527 294.629 151.591 293.89 152.41C296.354 152.09 298.849 152.689 300.899 154.092C301.913 154.809 302.731 155.768 303.279 156.881C303.828 157.995 304.089 159.229 304.039 160.469C303.944 161.704 303.465 162.879 302.668 163.827C301.871 164.775 300.796 165.449 299.595 165.754C298.768 165.936 298.558 165.375 298.109 166.09C297.874 166.862 297.765 167.666 297.787 168.473C297.948 171.071 297.793 173.678 297.324 176.238C296.565 175.973 295.732 176.008 294.997 176.336C294.262 176.664 293.681 177.261 293.372 178.004C292.808 179.521 292.653 181.16 292.923 182.756C292.708 182.979 292.446 183.151 292.157 183.26C291.867 183.37 291.557 183.413 291.248 183.388C290.94 183.362 290.641 183.268 290.373 183.113C290.105 182.958 289.875 182.745 289.699 182.49C289.05 181.396 288.761 180.126 288.872 178.859L288.704 165.74C288.057 166.097 287.33 166.284 286.591 166.283C285.852 166.283 285.125 166.094 284.479 165.735C283.833 165.376 283.289 164.859 282.898 164.232C282.506 163.605 282.281 162.889 282.242 162.151C281.315 163.042 280.202 163.716 278.982 164.123C277.762 164.53 276.468 164.66 275.191 164.504C273.915 164.349 272.689 163.911 271.603 163.223C270.517 162.534 269.598 161.613 268.912 160.525C267.597 161.63 266.152 162.572 264.609 163.329C263.04 164.098 261.241 164.253 259.563 163.763C258.732 163.506 258.001 162.997 257.471 162.306C256.942 161.616 256.639 160.778 256.606 159.909L257.18 159.418" fill="#263238"/>
<path d="M297.184 348.196H185.134L166.66 276.641H260.152L274.954 343.529L297.184 344.061V348.196Z" fill="#FFC100"/>
<path d="M263.544 176.925C263.656 177.079 262.619 177.892 261.077 177.92C259.535 177.948 258.456 177.205 258.568 177.051C258.68 176.897 259.717 177.233 261.063 177.191C262.409 177.149 263.446 176.743 263.544 176.925Z" fill="#263238"/>
<path d="M259.507 177.682C259.507 178.067 259.66 178.436 259.932 178.708C260.204 178.98 260.573 179.133 260.958 179.133C261.343 179.133 261.712 178.98 261.984 178.708C262.256 178.436 262.409 178.067 262.409 177.682" fill="#263238"/>
<path d="M279.313 177.023C279.439 177.177 278.402 177.99 276.846 178.018C275.29 178.046 274.225 177.303 274.337 177.149C274.449 176.995 275.5 177.332 276.832 177.289C278.164 177.247 279.215 176.841 279.313 177.023Z" fill="#263238"/>
<path d="M275.29 177.822C275.29 178.205 275.442 178.572 275.713 178.843C275.984 179.114 276.351 179.266 276.734 179.266C277.117 179.266 277.484 179.114 277.755 178.843C278.025 178.572 278.177 178.205 278.177 177.822" fill="#263238"/>
<path d="M280.336 173.337C280.224 173.939 278.598 174.164 276.678 174.192C274.757 174.22 273.117 174.024 273.005 173.421C272.893 172.818 274.505 172.019 276.65 172.019C278.794 172.019 280.434 172.748 280.336 173.337Z" fill="#263238"/>
<path d="M264.062 174.248C263.964 174.851 262.338 175.089 260.418 175.117C258.498 175.145 256.858 174.935 256.732 174.332C256.606 173.729 258.245 172.93 260.39 172.93C262.535 172.93 264.189 173.617 264.062 174.248Z" fill="#263238"/>
<path d="M305.02 180.219C305.02 182.267 304.206 184.232 302.758 185.68C301.309 187.129 299.345 187.942 297.296 187.942C293.091 187.942 291.55 184.494 291.55 180.219C291.55 175.944 293.035 172.51 297.296 172.51C299.342 172.51 301.305 173.322 302.753 174.767C304.201 176.212 305.016 178.173 305.02 180.219Z" fill="#455A64"/>
<path d="M296.638 174.332C296.638 174.332 302.609 145.682 282.985 146.803L282.046 145.009C282.046 145.009 293.932 142.205 298.278 151.457C301.67 158.661 299.469 174.024 299.469 174.024L296.638 174.332Z" fill="#455A64"/>
<path d="M298.278 187.942C297.328 187.979 296.402 187.642 295.698 187.003C293.881 185.607 292.684 183.554 292.362 181.284C292.098 179.025 292.591 176.743 293.764 174.795C294.759 173.295 296.007 173.098 295.993 173.197C295.26 173.673 294.646 174.311 294.199 175.061C293.256 176.956 292.881 179.083 293.119 181.186C293.428 183.279 294.465 185.195 296.049 186.597C296.739 187.128 297.486 187.579 298.278 187.942Z" fill="#263238"/>
<path d="M268.688 193.241C268.8 193.409 268.59 193.759 268.141 193.885C267.693 194.012 267.314 193.885 267.343 193.619C267.371 193.353 267.637 193.269 267.945 193.185C268.254 193.101 268.576 193.016 268.688 193.241Z" fill="#263238"/>
<path d="M238.356 197.978C240.19 197.978 241.678 196.491 241.678 194.656C241.678 192.822 240.19 191.334 238.356 191.334C236.521 191.334 235.034 192.822 235.034 194.656C235.034 196.491 236.521 197.978 238.356 197.978Z" fill="#263238"/>
<path d="M241.201 193.549C239.434 191.654 237.977 189.492 236.884 187.143C235.591 184.918 234.457 182.605 233.492 180.219C235.097 182.245 236.461 184.452 237.557 186.793C239.505 190.549 241.355 193.423 241.201 193.549Z" fill="#263238"/>
<path d="M239.603 176.561C239.786 176.631 239.071 178.355 237.206 179.546C236.692 179.958 236.096 180.256 235.459 180.42C234.821 180.584 234.155 180.611 233.506 180.499C233.506 180.289 235.146 180.037 236.814 178.943C238.482 177.85 239.421 176.42 239.603 176.561Z" fill="#263238"/>
<path d="M241.047 179.686C241.229 179.686 240.598 181.481 238.706 182.49C238.183 182.858 237.577 183.093 236.941 183.174C236.306 183.254 235.661 183.178 235.062 182.952C236.184 182.683 237.282 182.317 238.342 181.859C240.024 180.976 240.851 179.588 241.047 179.686Z" fill="#263238"/>
<path d="M221.129 192.722C220.875 193.052 220.53 193.299 220.135 193.432C219.741 193.565 219.316 193.579 218.914 193.47C218.512 193.361 218.152 193.136 217.878 192.822C217.605 192.509 217.43 192.121 217.377 191.708C217.324 191.296 217.395 190.876 217.58 190.504C217.766 190.131 218.057 189.822 218.419 189.615C218.78 189.409 219.194 189.314 219.609 189.343C220.025 189.372 220.422 189.524 220.751 189.779C221.19 190.119 221.477 190.62 221.548 191.172C221.619 191.724 221.468 192.281 221.129 192.722Z" fill="#263238"/>
<path d="M221.311 191.979C221.035 190.349 221.097 188.679 221.494 187.073C221.675 185.447 222.046 183.847 222.601 182.307C222.755 183.943 222.627 185.593 222.222 187.185C222.057 188.806 221.752 190.41 221.311 191.979Z" fill="#263238"/>
<path d="M228.979 184.704C227.963 185.08 226.863 185.164 225.803 184.946C224.742 184.728 223.764 184.217 222.979 183.471C222.503 182.952 222.419 182.476 222.503 182.448C222.587 182.42 222.825 182.742 223.33 183.093C223.983 183.559 224.714 183.906 225.488 184.116C227.339 184.634 228.951 184.48 228.979 184.704Z" fill="#263238"/>
<path d="M227.507 195.133C227.253 195.462 226.908 195.708 226.515 195.841C226.121 195.974 225.697 195.987 225.296 195.88C224.895 195.772 224.535 195.548 224.261 195.236C223.987 194.923 223.812 194.537 223.758 194.126C223.703 193.714 223.771 193.295 223.954 192.923C224.137 192.55 224.427 192.24 224.786 192.031C225.145 191.822 225.557 191.725 225.972 191.751C226.386 191.776 226.784 191.924 227.114 192.175C227.335 192.343 227.52 192.553 227.66 192.793C227.799 193.033 227.89 193.298 227.926 193.572C227.962 193.847 227.944 194.127 227.872 194.395C227.8 194.662 227.676 194.913 227.507 195.133Z" fill="#263238"/>
<path d="M227.745 194.39C227.461 192.76 227.523 191.088 227.927 189.484C228.102 187.852 228.473 186.247 229.035 184.704C229.188 186.345 229.056 188.001 228.642 189.596C228.485 191.217 228.184 192.822 227.745 194.39Z" fill="#263238"/>
<path d="M228.796 186.134C228.278 186.425 227.704 186.603 227.112 186.656C226.52 186.71 225.924 186.637 225.362 186.442C223.414 185.98 222.278 184.746 222.419 184.62C222.559 184.494 223.82 185.321 225.53 185.728C227.24 186.134 228.754 185.924 228.796 186.134Z" fill="#263238"/>
<path d="M341.632 289.452C341.38 289.474 341.127 289.474 340.875 289.452H338.73L330.811 289.158C324.125 288.877 314.902 288.443 304.711 287.91L299.483 287.644H299.133V287.307C299.133 278.393 299.217 270.487 299.245 264.712C299.245 261.909 299.329 259.68 299.357 258.012C299.357 257.283 299.357 256.695 299.357 256.204C299.36 255.992 299.384 255.781 299.427 255.573C299.488 255.778 299.512 255.991 299.497 256.204C299.497 256.695 299.497 257.283 299.567 258.012C299.567 259.68 299.567 261.937 299.665 264.712C299.665 270.501 299.749 278.393 299.791 287.307L299.455 286.943L304.669 287.209C314.86 287.742 324.097 288.261 330.769 288.611L338.674 289.144L340.819 289.326C341.095 289.322 341.37 289.364 341.632 289.452Z" fill="#263238"/>
<path d="M321.658 228.283C319.989 228.075 318.304 228.023 316.626 228.128C312.598 228.568 308.84 230.368 305.973 233.231C303.17 236.166 301.268 239.843 300.492 243.827C299.876 246.883 300.002 248.859 299.862 248.845C299.741 248.388 299.689 247.916 299.707 247.444C299.626 241.963 301.688 236.667 305.454 232.684C308.425 229.691 312.378 227.874 316.584 227.568C317.841 227.484 319.105 227.569 320.34 227.82C320.803 227.897 321.248 228.054 321.658 228.283Z" fill="#263238"/>
<path d="M244.257 250.037C244.467 251.386 244.552 252.751 244.509 254.116C244.509 256.639 244.593 260.185 244.509 264.068C244.425 267.74 244.355 271.076 244.285 273.795C244.285 275.351 244.285 276.472 244.285 277.58C244.285 276.318 244.285 275.057 244.285 273.291C244.285 270.487 244.145 267.235 244.075 263.479C244.005 259.722 244.075 256.47 244.075 253.961C244.016 252.65 244.077 251.337 244.257 250.037Z" fill="#263238"/>
<path d="M222.657 312.383C222.66 313.64 222.29 314.869 221.594 315.915C220.898 316.961 219.907 317.777 218.747 318.26C217.587 318.742 216.31 318.87 215.077 318.627C213.845 318.383 212.712 317.78 211.823 316.892C210.933 316.005 210.327 314.873 210.081 313.641C209.835 312.409 209.96 311.132 210.44 309.971C210.92 308.81 211.734 307.817 212.778 307.119C213.823 306.421 215.051 306.048 216.307 306.048C217.989 306.048 219.602 306.715 220.792 307.903C221.983 309.09 222.653 310.702 222.657 312.383Z" fill="#F5F5F5"/>
<circle cx="101.654" cy="31.9081" r="4.16193" transform="rotate(-180 101.654 31.9081)" fill="#FFC100"/>
<circle cx="87.7813" cy="31.9082" r="4.16193" transform="rotate(-180 87.7813 31.9082)" fill="#FFC100"/>
<circle cx="73.9081" cy="31.9082" r="4.16193" transform="rotate(-180 73.9081 31.9082)" fill="#FFC100"/>
<circle cx="60.0351" cy="31.9082" r="4.16193" transform="rotate(-180 60.0351 31.9082)" fill="#FFC100"/>
<circle cx="46.1619" cy="31.9082" r="4.16193" transform="rotate(-180 46.1619 31.9082)" fill="#FFC100"/>
<circle cx="101.654" cy="18.035" r="4.16193" transform="rotate(-180 101.654 18.035)" fill="#FFC100"/>
<circle cx="87.7813" cy="18.035" r="4.16193" transform="rotate(-180 87.7813 18.035)" fill="#FFC100"/>
<circle cx="73.9081" cy="18.035" r="4.16193" transform="rotate(-180 73.9081 18.035)" fill="#FFC100"/>
<circle cx="60.0351" cy="18.035" r="4.16193" transform="rotate(-180 60.0351 18.035)" fill="#FFC100"/>
<circle cx="46.1619" cy="18.035" r="4.16193" transform="rotate(-180 46.1619 18.035)" fill="#FFC100"/>
<circle cx="73.9081" cy="4.16195" r="4.16193" transform="rotate(-180 73.9081 4.16195)" fill="#FFC100"/>
<circle cx="60.0351" cy="4.16191" r="4.16193" transform="rotate(-180 60.0351 4.16191)" fill="#FFC100"/>
<circle cx="46.1619" cy="4.16191" r="4.16193" transform="rotate(-180 46.1619 4.16191)" fill="#FFC100"/>
<circle cx="433.162" cy="328.162" r="4.16193" fill="#FFC100"/>
<circle cx="447.035" cy="328.162" r="4.16193" fill="#FFC100"/>
<circle cx="460.908" cy="328.162" r="4.16193" fill="#FFC100"/>
<circle cx="474.781" cy="328.162" r="4.16193" fill="#FFC100"/>
<circle cx="488.654" cy="328.162" r="4.16193" fill="#FFC100"/>
<circle cx="433.162" cy="342.035" r="4.16193" fill="#FFC100"/>
<circle cx="447.035" cy="342.035" r="4.16193" fill="#FFC100"/>
<circle cx="460.908" cy="342.035" r="4.16193" fill="#FFC100"/>
<circle cx="474.781" cy="342.035" r="4.16193" fill="#FFC100"/>
<circle cx="488.654" cy="342.035" r="4.16193" fill="#FFC100"/>
<circle cx="460.908" cy="355.908" r="4.16193" fill="#FFC100"/>
<circle cx="474.781" cy="355.908" r="4.16193" fill="#FFC100"/>
<circle cx="488.654" cy="355.908" r="4.16193" fill="#FFC100"/>
</svg>
